HIERARCHY
ROOT Hips
{
 OFFSET 0.000000 0.000000 0.000000
 CHANNELS 6 Xposition Yposition Zposition Yrotation Xrotation Zrotation
 JOINT Chest
 {
  OFFSET 0.000000 9.585900 0.002600
  CHANNELS 3 Yrotation Xrotation Zrotation
  JOINT Chest2
  {
   OFFSET 0.000000 9.601200 -0.005300
   CHANNELS 3 Yrotation Xrotation Zrotation
   JOINT Chest3
   {
    OFFSET 0.000000 9.561800 0.000000
    CHANNELS 3 Yrotation Xrotation Zrotation
    JOINT Chest4
    {
     OFFSET 0.000000 9.552100 0.000000
     CHANNELS 3 Yrotation Xrotation Zrotation
     JOINT Neck
     {
      OFFSET 0.000000 14.453000 0.000000
      CHANNELS 3 Yrotation Xrotation Zrotation
      JOINT Head
      {
       OFFSET 0.000000 8.936500 -0.011300
       CHANNELS 3 Yrotation Xrotation Zrotation
       End Site
       {
        OFFSET 0.000000 17.073600 -0.006000
       }
      }
     }
     JOINT RightCollar
     {
      OFFSET -2.921100 9.558500 0.000000
      CHANNELS 3 Yrotation Xrotation Zrotation
      JOINT RightShoulder
      {
       OFFSET -13.519700 0.000000 0.000000
       CHANNELS 3 Yrotation Xrotation Zrotation
       JOINT RightElbow
       {
        OFFSET 0.000000 -29.696600 0.000000
        CHANNELS 3 Yrotation Xrotation Zrotation
        JOINT RightWrist
        {
         OFFSET 0.000000 -24.004700 0.000000
         CHANNELS 3 Yrotation Xrotation Zrotation
         End Site
         {
          OFFSET 0.000000 -17.728500 0.000000
         }
        }
       }
      }
     }
     JOINT LeftCollar
     {
      OFFSET 2.921100 9.558500 0.000000
      CHANNELS 3 Yrotation Xrotation Zrotation
      JOINT LeftShoulder
      {
       OFFSET 13.519700 0.000000 0.000000
       CHANNELS 3 Yrotation Xrotation Zrotation
       JOINT LeftElbow
       {
        OFFSET 0.000000 -29.696600 0.000000
        CHANNELS 3 Yrotation Xrotation Zrotation
        JOINT LeftWrist
        {
         OFFSET 0.000000 -24.004700 0.000000
         CHANNELS 3 Yrotation Xrotation Zrotation
         End Site
         {
          OFFSET 0.000000 -17.728500 0.000000
         }
        }
       }
      }
     }
    }
   }
  }
 }
 JOINT RightHip
 {
  OFFSET -7.771700 -0.012900 -0.001300
  CHANNELS 3 Yrotation Xrotation Zrotation
  JOINT RightKnee
  {
   OFFSET 0.000000 -40.869800 0.001200
   CHANNELS 3 Yrotation Xrotation Zrotation
   JOINT RightAnkle
   {
    OFFSET 0.000000 -39.717900 0.002100
    CHANNELS 3 Yrotation Xrotation Zrotation
    JOINT RightToe
    {
     OFFSET 0.000000 -4.965400 11.033500
     CHANNELS 3 Yrotation Xrotation Zrotation
     End Site
     {
      OFFSET 0.000000 -1.423100 5.872300
     }
    }
   }
  }
 }
 JOINT LeftHip
 {
  OFFSET 7.771700 -0.012900 -0.001300
  CHANNELS 3 Yrotation Xrotation Zrotation
  JOINT LeftKnee
  {
   OFFSET 0.000000 -40.869800 0.001200
   CHANNELS 3 Yrotation Xrotation Zrotation
   JOINT LeftAnkle
   {
    OFFSET 0.000000 -39.717900 0.002100
    CHANNELS 3 Yrotation Xrotation Zrotation
    JOINT LeftToe
    {
     OFFSET 0.000000 -4.965400 11.033500
     CHANNELS 3 Yrotation Xrotation Zrotation
     End Site
     {
      OFFSET 0.000000 -1.423100 5.872300
     }
    }
   }
  }
 }
}
MOTION
Frames: 8
Frame Time: 0.008333
-9.494442 57.612301 39.961977 169.506824 -54.923558 2.867816 0.304103 25.410526 3.308372 0.060958 4.122174 0.464298 0.113336 6.578274 0.744393 0.693044 20.997495 2.508989 8.156967 23.968992 -4.399168 15.704814 9.678375 -9.851054 5.599266 1.963776 -0.678416 23.355546 -26.791701 -10.237944 39.032037 -50.895160 -25.070306 4.368365 3.891771 -28.417652 -7.120387 -0.728047 -2.187833 -36.836921 -18.864138 5.063669 -34.675505 -48.886309 27.779804 -26.395122 -0.022210 22.540450 16.423310 -17.728472 1.122360 -14.643060 67.372141 -8.254670 3.337274 4.227594 5.296146 -0.133633 0.797156 -0.244994 -8.964145 -20.696051 -2.781540 32.947138 65.415543 24.695086 -20.441454 11.899208 -3.201566 -0.287219 -1.173861 -0.338471
-9.455830 57.630716 39.983943 169.720133 -55.012889 2.541322 0.097710 25.536159 3.372526 0.052264 4.153928 0.464373 0.099521 6.625926 0.743948 0.644843 21.061648 2.491414 8.189292 23.776541 -4.522815 15.810855 9.348759 -10.103700 5.740373 1.961095 -0.723010 23.130839 -26.565091 -9.946314 38.046856 -51.482924 -24.902504 4.451049 4.480560 -27.679284 -7.065927 -0.824654 -2.259842 -36.824788 -18.703635 5.090688 -34.974705 -49.033920 28.172388 -26.465942 0.090983 22.465739 15.744230 -17.555611 1.546792 -15.000417 67.130497 -9.048025 3.422335 4.078755 5.341159 -0.117943 0.986366 -0.253470 -9.326486 -20.655028 -2.637687 33.263934 65.377926 24.945669 -20.380067 12.155070 -3.247378 -0.316952 -1.284249 -0.330591
-9.410104 57.645664 40.007021 169.920724 -55.063346 2.221214 -0.016295 25.601450 3.494531 -0.010962 4.193123 0.444916 0.089997 6.665688 0.744013 0.611640 21.114603 2.479312 8.217819 23.584485 -4.637857 15.908759 9.018281 -10.340526 5.835250 1.959844 -0.742808 22.885532 -26.301079 -9.656077 37.464022 -52.027818 -24.997229 4.549883 4.722991 -27.129634 -7.045292 -0.903791 -2.315353 -36.812653 -18.548659 5.103803 -35.235864 -49.150944 28.521316 -26.476798 0.183889 22.406795 15.073649 -17.426129 1.988650 -15.180846 66.900717 -9.685413 3.387342 3.988946 5.339260 -0.029882 1.123798 -0.220999 -9.736881 -20.658175 -2.439044 33.541199 65.377589 25.100610 -20.332988 12.356572 -3.312469 -0.289705 -1.352864 -0.309395
-9.358250 57.654818 40.032275 170.083036 -55.072595 1.934876 -0.102166 25.624660 3.615428 -0.008316 4.204176 0.445794 0.031907 6.716976 0.729143 0.592947 21.155662 2.470532 8.244106 23.393564 -4.742204 16.000644 8.688093 -10.558145 5.901823 1.935434 -0.750612 22.590954 -25.999234 -9.357706 37.267745 -52.513887 -25.288670 4.642716 4.624679 -26.774577 -7.054512 -0.962927 -2.351708 -36.801642 -18.397845 5.108775 -35.443345 -49.252434 28.801162 -26.423659 0.228945 22.396134 14.532237 -17.368420 2.370559 -15.234590 66.723736 -10.094093 3.318828 3.963629 5.276753 0.053996 1.192348 -0.144308 -10.149038 -20.699221 -2.209109 33.753303 65.403700 25.164232 -20.261697 12.537025 -3.373316 -0.290839 -1.463235 -0.306651
-9.306614 57.657627 40.058986 170.166617 -55.048317 1.742079 -0.272905 25.651045 3.609815 0.041724 4.212972 0.464763 0.057248 6.729558 0.736270 0.637394 21.145669 2.476076 8.223012 23.242186 -4.824480 16.089340 8.360571 -10.759401 5.887435 1.954201 -0.740153 22.266158 -25.705249 -9.078534 37.390139 -52.943106 -25.709146 4.729214 4.298178 -26.601895 -7.134948 -0.970165 -2.365682 -36.789105 -18.248398 5.103649 -35.586071 -49.364090 28.999640 -26.310228 0.215641 22.447955 14.231220 -17.379959 2.613358 -15.219370 66.619302 -10.231968 3.223067 3.997258 5.193978 0.153924 1.207067 -0.102572 -10.494283 -20.766728 -2.000155 33.876157 65.441984 25.147630 -20.143487 12.699187 -3.433126 -0.292639 -1.481993 -0.267119
-9.257607 57.652310 40.087996 170.006472 -54.983291 1.770935 -0.243746 25.627250 3.631373 0.041104 4.229203 0.464195 0.081875 6.738755 0.742655 0.605688 21.192501 2.462893 8.272764 23.035212 -4.920079 16.175276 8.035810 -10.946913 5.971336 1.888646 -0.751783 21.865324 -25.419230 -8.802796 37.732847 -53.324548 -26.186196 4.809704 3.861425 -26.592434 -7.146213 -1.039400 -2.359304 -36.773772 -18.098796 5.081881 -35.658579 -49.498049 29.118748 -26.159062 0.160163 22.551200 14.306284 -17.487169 2.688465 -15.203444 66.599233 -10.109690 3.135514 4.090584 5.116137 0.215670 1.155523 -0.101862 -10.656849 -20.853986 -1.813105 33.878244 65.485250 25.053299 -20.069049 12.831648 -3.497643 -0.279055 -1.491043 -0.241399
-9.221684 57.638521 40.118186 169.780769 -54.879207 1.915227 -0.170381 25.564620 3.608523 0.041891 4.240272 0.463691 0.083220 6.755264 0.741726 0.584667 21.232582 2.450371 8.317544 22.832798 -5.007329 16.257913 7.712316 -11.124905 5.986875 1.859042 -0.759438 21.501819 -25.215113 -8.573364 38.206158 -53.655477 -26.654697 4.887802 3.399244 -26.733381 -7.165286 -1.121199 -2.327675 -36.758761 -17.950008 5.037324 -35.649509 -49.647127 29.157826 -26.011916 0.080637 22.701626 14.627243 -17.659275 2.553121 -15.183587 66.652098 -9.766447 3.116941 4.212287 5.070351 0.196856 1.041054 -0.132707 -10.715256 -20.975381 -1.706954 33.782015 65.522427 24.909529 -19.997853 12.909035 -3.576777 -0.252510 -1.477487 -0.219847
-9.196019 57.625059 40.143824 169.517366 -54.797756 2.122839 -0.086731 25.538171 3.551861 0.043357 4.250315 0.463333 0.085538 6.770174 0.741098 0.591229 21.252045 2.446312 8.361250 22.695805 -5.056087 16.309727 7.355203 -11.334627 5.974857 1.839242 -0.783138 21.128205 -25.071388 -8.362095 38.741027 -53.925042 -27.065916 4.957376 2.962958 -27.013953 -7.150759 -1.204122 -2.302106 -36.805241 -17.795619 4.990953 -35.551978 -49.797865 29.117940 -25.904472 -0.012683 22.896387 15.059497 -17.805319 2.303081 -15.132690 66.729836 -9.280370 3.199541 4.337864 4.988533 0.103603 0.892504 -0.112763 -10.699619 -21.072994 -1.665324 33.623136 65.555199 24.747290 -19.940369 12.990776 -3.639887 -0.194456 -1.515965 -0.242590
